HIERARCHY
ROOT joint_Root
{
	OFFSET 0.0 0.0 0.0
	CHANNELS 6 Xposition Yposition Zposition Zrotation Xrotation Yrotation 
	JOINT Hips
	{
		OFFSET -0.726466 93.3139 -2.00062
		CHANNELS 6 Xposition Yposition Zposition Zrotation Xrotation Yrotation 
		JOINT Spine
		{
			OFFSET 15.7357 0.0 0.0
			CHANNELS 6 Xposition Yposition Zposition Zrotation Xrotation Yrotation 
			JOINT Chest
			{
				OFFSET 8.98455 -0.406207 0.0
				CHANNELS 6 Xposition Yposition Zposition Zrotation Xrotation Yrotation 
				JOINT Neck
				{
					OFFSET 16.3773 0.0 0.0
					CHANNELS 6 Xposition Yposition Zposition Zrotation Xrotation Yrotation 
					JOINT Head
					{
						OFFSET 6.45672 0.0 0.0
						CHANNELS 6 Xposition Yposition Zposition Zrotation Xrotation Yrotation 
						End Site
						{
							OFFSET 0.0 0.0 0.0
						}
					}
				}
				JOINT Shoulder_L
				{
					OFFSET 12.9942 -0.242716 4.98039
					CHANNELS 6 Xposition Yposition Zposition Zrotation Xrotation Yrotation 
					JOINT UpperArm_L
					{
						OFFSET 5.34809 0.0 0.0
						CHANNELS 6 Xposition Yposition Zposition Zrotation Xrotation Yrotation 
						JOINT LowerArm_L
						{
							OFFSET 24.3286 1.87007e-05 0.0
							CHANNELS 6 Xposition Yposition Zposition Zrotation Xrotation Yrotation 
							JOINT Hand_L
							{
								OFFSET 22.2916 0.0 0.0
								CHANNELS 6 Xposition Yposition Zposition Zrotation Xrotation Yrotation 
								End Site
								{
									OFFSET 0.0 0.0 0.0
								}
							}
						}
					}
				}
				JOINT Shoulder_R
				{
					OFFSET 12.9945 -0.242716 -4.98039
					CHANNELS 6 Xposition Yposition Zposition Zrotation Xrotation Yrotation 
					JOINT UpperArm_R
					{
						OFFSET -5.34813 0.0 0.0
						CHANNELS 6 Xposition Yposition Zposition Zrotation Xrotation Yrotation 
						JOINT LowerArm_R
						{
							OFFSET -24.3289 0.000322201 0.0
							CHANNELS 6 Xposition Yposition Zposition Zrotation Xrotation Yrotation 
							JOINT Hand_R
							{
								OFFSET -22.2915 -0.000108084 0.0
								CHANNELS 6 Xposition Yposition Zposition Zrotation Xrotation Yrotation 
								End Site
								{
									OFFSET 0.0 0.0 0.0
								}
							}
						}
					}
				}
			}
		}
		JOINT UpperLeg_L
		{
			OFFSET -2.19248 -6.46944 0.0
			CHANNELS 6 Xposition Yposition Zposition Zrotation Xrotation Yrotation 
			JOINT LowerLeg_L
			{
				OFFSET 39.0811 0.0 -1.23785e-05
				CHANNELS 6 Xposition Yposition Zposition Zrotation Xrotation Yrotation 
				JOINT Foot_L
				{
					OFFSET 40.9854 0.0 -1.26872e-05
					CHANNELS 6 Xposition Yposition Zposition Zrotation Xrotation Yrotation 
					JOINT Toes_L
					{
						OFFSET 11.7543 0.0 0.0
						CHANNELS 6 Xposition Yposition Zposition Zrotation Xrotation Yrotation 
						End Site
						{
							OFFSET 0.0 0.0 0.0
						}
					}
				}
			}
		}
		JOINT UpperLeg_R
		{
			OFFSET -2.19251 6.46944 0.0
			CHANNELS 6 Xposition Yposition Zposition Zrotation Xrotation Yrotation 
			JOINT LowerLeg_R
			{
				OFFSET -39.0811 -0.00228153 -0.0401928
				CHANNELS 6 Xposition Yposition Zposition Zrotation Xrotation Yrotation 
				JOINT Foot_R
				{
					OFFSET -40.9854 0.0 0.0
					CHANNELS 6 Xposition Yposition Zposition Zrotation Xrotation Yrotation 
					JOINT Toes_R
					{
						OFFSET -11.7543 0.0 0.0
						CHANNELS 6 Xposition Yposition Zposition Zrotation Xrotation Yrotation 
						End Site
						{
							OFFSET 0.0 0.0 0.0
						}
					}
				}
			}
		}
	}
}
MOTION
Frames:	9
Frame Time:	0.0333333
0.000000 0.000000 0.000000 0.000000 0.000000 -0.000000 -2.188630 92.373200 -1.645840 88.572700 0.735107 3.536420 15.735700 0.000005 -0.000001 79.033900 85.797800 -77.479800 8.984550 -0.406207 -0.000000 0.510284 -1.696620 3.113640 16.377300 -0.000001 -0.000001 2.725330 -2.051230 -1.701800 6.456720 -0.000001 -0.000000 4.264260 -2.518460 -1.389950 12.994200 -0.242716 4.980390 -87.917600 -6.007010 -70.840400 5.348090 -0.000007 -0.000001 -83.631700 -37.252300 -84.046500 24.328600 0.000019 0.000005 5.874330 -0.582841 -95.646600 22.291600 -0.000001 0.000005 20.044100 5.596690 -11.146200 12.994500 -0.242716 -4.980390 88.391500 5.253710 -72.950700 -5.348130 -0.000001 -0.000004 -63.871100 38.853700 -16.380800 -24.328900 0.000322 -0.000009 2.116930 7.410750 -15.999000 -22.291500 -0.000108 -0.000004 8.312940 5.426020 -3.802960 -2.192480 -6.469440 -0.000000 -175.192000 -5.219010 -3.222710 39.081100 -0.000007 -0.000012 -0.107988 0.268209 21.931000 40.985400 -0.000006 -0.000013 -0.966134 4.628550 -65.414000 11.754300 -0.000000 0.000003 -0.000027 -0.000325 -16.590300 -2.192510 6.469440 -0.000001 -179.466000 14.692500 179.908000 -39.081100 -0.002282 -0.040193 -0.012613 0.046224 19.021800 -40.985400 0.000008 0.000006 5.005230 5.846320 -66.201900 -11.754300 -0.000006 -0.000006 -0.006101 -0.071753 -19.493400
0.000000 0.000000 0.000000 0.000000 0.000000 -0.000000 -2.159340 92.379900 -1.659710 88.569300 0.704156 3.498450 15.735700 0.000005 -0.000001 79.230200 85.779700 -77.693900 8.984550 -0.406207 -0.000000 0.550526 -1.673410 3.078610 16.377300 -0.000001 -0.000001 2.671550 -2.045030 -1.719650 6.456720 -0.000001 -0.000000 4.165400 -2.499500 -1.388680 12.994200 -0.242716 4.980390 -87.917700 -5.982730 -70.769200 5.348090 -0.000007 -0.000001 -83.506000 -37.409700 -83.886300 24.328600 0.000019 0.000005 5.918060 -0.606276 -95.828700 22.291600 -0.000001 0.000005 20.082200 5.598010 -11.224300 12.994500 -0.242716 -4.980390 88.389800 5.266490 -72.972600 -5.348130 -0.000001 -0.000004 -63.916300 38.869600 -16.329600 -24.328900 0.000322 -0.000009 2.132420 7.458890 -16.012000 -22.291500 -0.000108 -0.000004 8.327730 5.424860 -3.763270 -2.192480 -6.469440 -0.000000 -175.225000 -5.203370 -3.252230 39.081100 -0.000007 -0.000012 -0.105357 0.262047 21.902900 40.985400 -0.000006 -0.000013 -0.952935 4.568400 -65.395300 11.754300 -0.000000 0.000003 -0.000029 -0.000347 -16.591100 -2.192510 6.469440 -0.000001 -179.463000 14.639200 179.865000 -39.081100 -0.002282 -0.040193 -0.012517 0.046034 18.988600 -40.985400 0.000008 0.000006 4.978350 5.846000 -66.160500 -11.754300 -0.000006 -0.000006 -0.005878 -0.069720 -19.410500
0.000000 0.000000 0.000000 0.000000 0.000000 -0.000000 -2.131340 92.383700 -1.662370 88.550100 0.636016 3.479050 15.735700 0.000005 -0.000001 79.544400 85.759100 -78.021200 8.984550 -0.406207 -0.000000 0.598829 -1.633940 3.052950 16.377300 -0.000001 -0.000001 2.592910 -1.999160 -1.743150 6.456720 -0.000001 -0.000000 4.106070 -2.492720 -1.351600 12.994200 -0.242716 4.980390 -87.915800 -5.955160 -70.670700 5.348090 -0.000007 -0.000001 -83.227000 -37.537600 -83.251900 24.328600 0.000019 0.000005 5.792520 -0.639011 -96.274100 22.291600 -0.000001 0.000005 20.197300 5.597070 -11.168800 12.994500 -0.242716 -4.980390 88.374100 5.319150 -72.976100 -5.348130 -0.000001 -0.000004 -63.924400 38.979100 -16.285000 -24.328900 0.000322 -0.000009 2.120580 7.436590 -15.972700 -22.291500 -0.000108 -0.000004 8.307510 5.425170 -3.774010 -2.192480 -6.469440 -0.000000 -175.233000 -5.220030 -3.262960 39.081100 -0.000007 -0.000012 -0.105215 0.261736 21.899700 40.985400 -0.000006 -0.000013 -0.939325 4.517230 -65.399300 11.754300 -0.000000 0.000003 -0.000030 -0.000358 -16.591500 -2.192510 6.469440 -0.000001 -179.448000 14.591900 179.858000 -39.081100 -0.002282 -0.040193 -0.010050 0.038924 18.961100 -40.985400 0.000008 0.000006 5.036400 5.842840 -66.151900 -11.754300 -0.000006 -0.000006 -0.005922 -0.070128 -19.427100
0.000000 0.000000 0.000000 0.000000 0.000000 -0.000000 -2.106650 92.381200 -1.663020 88.558100 0.623375 3.419310 15.735700 0.000005 -0.000001 79.635800 85.750300 -78.139400 8.984550 -0.406207 -0.000000 0.618060 -1.621880 2.999330 16.377300 -0.000001 -0.000001 2.541860 -1.985700 -1.701660 6.456720 -0.000001 -0.000000 4.030490 -2.497840 -1.350860 12.994200 -0.242716 4.980390 -87.921400 -5.924600 -70.626900 5.348090 -0.000007 -0.000001 -82.679700 -37.699700 -81.812100 24.328600 0.000019 0.000005 5.276390 -0.665667 -97.170900 22.291600 -0.000001 0.000005 20.138600 5.596290 -11.123300 12.994500 -0.242716 -4.980390 88.347500 5.398330 -72.951900 -5.348130 -0.000001 -0.000004 -64.016900 39.020800 -16.202000 -24.328900 0.000322 -0.000009 2.124260 7.488390 -15.894500 -22.291500 -0.000108 -0.000004 8.359120 5.426230 -3.809940 -2.192480 -6.469440 -0.000000 -175.255000 -5.256360 -3.332770 39.081100 -0.000007 -0.000012 -0.105873 0.263111 21.919300 40.985400 -0.000006 -0.000013 -0.924958 4.525580 -65.408200 11.754300 -0.000000 0.000003 -0.000026 -0.000315 -16.589900 -2.192510 6.469440 -0.000001 -179.452000 14.557500 179.762000 -39.081100 -0.002282 -0.040193 -0.012109 0.044802 19.006100 -40.985400 0.000008 0.000006 5.002010 5.814960 -66.154900 -11.754300 -0.000006 -0.000006 -0.005996 -0.070797 -19.454400
0.000000 0.000000 0.000000 0.000000 0.000000 -0.000000 -2.079420 92.391400 -1.653490 88.560100 0.596595 3.383910 15.735700 0.000005 -0.000001 79.737600 85.739700 -78.270400 8.984550 -0.406207 -0.000000 0.641032 -1.608690 2.941250 16.377300 -0.000001 -0.000001 2.476550 -1.978870 -1.624320 6.456720 -0.000001 -0.000000 3.982210 -2.487730 -1.305760 12.994200 -0.242716 4.980390 -87.954600 -5.806810 -70.556900 5.348090 -0.000007 -0.000001 -81.405200 -37.760100 -79.074900 24.328600 0.000019 0.000005 4.822240 -0.723132 -98.509900 22.291600 -0.000001 0.000005 20.327100 5.594840 -11.038500 12.994500 -0.242716 -4.980390 88.302800 5.514750 -72.863900 -5.348130 -0.000001 -0.000004 -64.111500 39.071200 -16.085000 -24.328900 0.000322 -0.000009 2.145450 7.551450 -15.918500 -22.291500 -0.000108 -0.000004 8.349120 5.424340 -3.745910 -2.192480 -6.469440 -0.000000 -175.282000 -5.296780 -3.324640 39.081100 -0.000007 -0.000012 -0.105292 0.262601 21.848800 40.985400 -0.000006 -0.000013 -0.902622 4.523570 -65.380800 11.754300 -0.000000 0.000003 -0.000029 -0.000352 -16.591300 -2.192510 6.469440 -0.000001 -179.436000 14.440600 179.767000 -39.081100 -0.002282 -0.040193 -0.008311 0.033916 18.934500 -40.985400 0.000008 0.000006 5.064370 5.722780 -66.130400 -11.754300 -0.000006 -0.000006 -0.006080 -0.071559 -19.485500
0.000000 0.000000 0.000000 0.000000 0.000000 -0.000000 -2.061040 92.385200 -1.637380 88.541000 0.561928 3.353590 15.735700 0.000005 -0.000001 79.740400 85.710300 -78.304100 8.984550 -0.406207 -0.000000 0.698462 -1.616070 2.880380 16.377300 -0.000001 -0.000001 2.372820 -2.013460 -1.508130 6.456720 -0.000001 -0.000000 3.899110 -2.481900 -1.212690 12.994200 -0.242716 4.980390 -88.036800 -5.554940 -70.500400 5.348090 -0.000007 -0.000001 -79.079000 -37.753600 -74.731300 24.328600 0.000019 0.000005 4.658290 -0.851722 -100.340000 22.291600 -0.000001 0.000005 20.585800 5.594360 -11.010800 12.994500 -0.242716 -4.980390 88.250000 5.644640 -72.744000 -5.348130 -0.000001 -0.000004 -64.240500 39.121700 -15.998700 -24.328900 0.000322 -0.000009 2.112180 7.406690 -15.973200 -22.291500 -0.000108 -0.000004 8.386030 5.427000 -3.836180 -2.192480 -6.469440 -0.000000 -175.275000 -5.286400 -3.361890 39.081100 -0.000007 -0.000012 -0.105771 0.263101 21.901000 40.985400 -0.000006 -0.000013 -0.901747 4.480940 -65.425500 11.754300 -0.000000 0.000003 -0.000027 -0.000328 -16.590400 -2.192510 6.469440 -0.000001 -179.425000 14.416700 179.721000 -39.081100 -0.002282 -0.040193 -0.009355 0.036883 18.970300 -40.985400 0.000008 0.000006 5.054770 5.745320 -66.149200 -11.754300 -0.000006 -0.000006 -0.006049 -0.071277 -19.474000
0.000000 0.000000 0.000000 0.000000 0.000000 -0.000000 -2.046700 92.392600 -1.630780 88.547900 0.424595 3.335170 15.735700 0.000005 -0.000001 80.520400 85.682900 -79.132400 8.984550 -0.406207 -0.000000 0.770345 -1.506210 2.784020 16.377300 -0.000001 -0.000001 2.274490 -2.104040 -1.295340 6.456720 -0.000001 -0.000000 3.793310 -2.557390 -1.203810 12.994200 -0.242716 4.980390 -88.190300 -5.152830 -70.618700 5.348090 -0.000007 -0.000001 -75.438200 -37.421900 -68.512200 24.328600 0.000019 0.000005 4.306630 -0.958091 -102.520000 22.291600 -0.000001 0.000005 20.679700 5.597070 -11.167900 12.994500 -0.242716 -4.980390 88.198700 5.750620 -72.574900 -5.348130 -0.000001 -0.000004 -64.528200 39.081000 -15.808700 -24.328900 0.000322 -0.000009 2.152690 7.488960 -16.095200 -22.291500 -0.000108 -0.000004 8.486190 5.427830 -3.864550 -2.192480 -6.469440 -0.000000 -175.298000 -5.361720 -3.324490 39.081100 -0.000007 -0.000012 -0.103946 0.259404 21.836600 40.985400 -0.000006 -0.000013 -0.897594 4.429180 -65.409200 11.754300 -0.000000 0.000003 -0.000029 -0.000350 -16.591200 -2.192510 6.469440 -0.000001 -179.423000 14.312400 179.716000 -39.081100 -0.002282 -0.040193 -0.007275 0.030889 18.937900 -40.985400 0.000008 0.000006 5.130600 5.751940 -66.139300 -11.754300 -0.000006 -0.000006 -0.005851 -0.069480 -19.400700
0.000000 0.000000 0.000000 0.000000 0.000000 -0.000000 -2.028280 92.384400 -1.602810 88.503100 0.273843 3.269150 15.735700 0.000005 -0.000001 81.396600 85.668900 -80.056400 8.984550 -0.406207 -0.000000 0.816620 -1.376590 2.688280 16.377300 -0.000001 -0.000001 2.142300 -2.210040 -1.004820 6.456720 -0.000001 -0.000000 3.743080 -2.618660 -1.172830 12.994200 -0.242716 4.980390 -88.433200 -4.525740 -70.882000 5.348090 -0.000007 -0.000001 -69.779500 -36.270500 -60.320900 24.328600 0.000019 0.000005 3.192380 -0.835296 -104.653000 22.291600 -0.000001 0.000005 21.176300 5.604510 -11.614500 12.994500 -0.242716 -4.980390 88.146400 5.870840 -72.442600 -5.348130 -0.000001 -0.000004 -64.809800 39.093900 -15.569400 -24.328900 0.000322 -0.000009 2.126370 7.302230 -16.291600 -22.291500 -0.000108 -0.000004 8.432370 5.428640 -3.892410 -2.192480 -6.469440 -0.000000 -175.265000 -5.456820 -3.383740 39.081100 -0.000007 -0.000012 -0.105212 0.261539 21.914000 40.985400 -0.000006 -0.000013 -0.897146 4.362460 -65.483900 11.754300 -0.000000 0.000003 -0.000026 -0.000319 -16.590000 -2.192510 6.469440 -0.000001 -179.391000 14.280500 179.651000 -39.081100 -0.002282 -0.040193 -0.008797 0.035298 18.951000 -40.985400 0.000008 0.000006 5.067360 5.876320 -66.146600 -11.754300 -0.000006 -0.000006 -0.005861 -0.069567 -19.404200
0.000000 0.000000 0.000000 0.000000 0.000000 -0.000000 -2.011520 92.383300 -1.579810 88.470700 0.109868 3.249630 15.735700 0.000005 -0.000001 82.145900 85.654400 -80.853300 8.984550 -0.406207 -0.000000 0.859452 -1.265090 2.592750 16.377300 -0.000001 -0.000001 2.085790 -2.266860 -0.715337 6.456720 -0.000001 -0.000000 3.726850 -2.698190 -1.169450 12.994200 -0.242716 4.980390 -88.726200 -3.724610 -71.104000 5.348090 -0.000007 -0.000001 -63.080900 -33.370600 -51.062200 24.328600 0.000019 0.000005 2.663380 -0.770628 -106.126000 22.291600 -0.000001 0.000005 21.272700 5.615320 -12.306400 12.994500 -0.242716 -4.980390 88.132900 5.889710 -72.376400 -5.348130 -0.000001 -0.000004 -65.022500 39.400100 -15.381100 -24.328900 0.000322 -0.000009 2.103780 7.166640 -16.414900 -22.291500 -0.000108 -0.000004 8.348910 5.430100 -3.942470 -2.192480 -6.469440 -0.000000 -175.239000 -5.530950 -3.375430 39.081100 -0.000007 -0.000012 -0.106940 0.265590 21.932200 40.985400 -0.000006 -0.000013 -0.907520 4.270450 -65.519700 11.754300 -0.000000 0.000003 -0.000032 -0.000387 -16.592700 -2.192510 6.469440 -0.000001 -179.383000 14.275400 179.654000 -39.081100 -0.002282 -0.040193 -0.007772 0.032337 18.937700 -40.985400 0.000008 0.000006 5.152010 6.025740 -66.169500 -11.754300 -0.000006 -0.000006 -0.006026 -0.071068 -19.465500
